<?xml version="1.0" encoding="UTF-8"?>
<!DOCTYPE svg PUBLIC "-//W3C//DTD SVG 1.1//EN" "http://www.w3.org/Graphics/SVG/1.1/DTD/svg11.dtd">
<!-- Creator: CorelDRAW -->
<svg xmlns="http://www.w3.org/2000/svg" xml:space="preserve" width="100mm" height="100mm" style="shape-rendering:geometricPrecision; text-rendering:geometricPrecision; image-rendering:optimizeQuality; fill-rule:evenodd; clip-rule:evenodd"
viewBox="0 0 100 100"
 xmlns:xlink="http://www.w3.org/1999/xlink">
 <defs>
  <style type="text/css">
   <![CDATA[
    .fil0 {fill:#EC268F}
   ]]>
  </style>
 </defs>
 <g id="Camada_x0020_1">
  <metadata id="CorelCorpID_0Corel-Layer"/>
  <path class="fil0" d="M22.1569 46.0831l-0.0642 -3.2738c-0.3384,0.1494 -1.5165,2.1845 -1.7019,2.6204 -0.2814,0.6621 -0.7103,1.6443 -0.8557,2.3303 -0.4629,2.184 2.5217,-1.5371 2.6218,-1.6769zm11.4435 10.7054c0.349,-0.8646 1.752,-1.1582 2.3188,-1.8936 0.768,-0.9966 0.5227,-1.3927 1.7333,-1.9327 1.0464,-0.4667 2.3609,-1.2628 3.3293,-1.7688 3.4275,-1.791 3.0062,-1.3575 4.5264,1.045 0.9821,1.9218 2.4732,4.8772 3.3547,6.8625 0.166,0.3738 0.2073,0.5858 0.3905,0.9421 0.2515,0.489 0.1466,0.5045 -0.0635,0.9466 -0.7522,1.5831 -1.6313,3.6748 -2.3179,5.3179 -2.0435,0.0869 -1.1495,-0.1224 -3.5181,0.2535 0.239,-2.6213 0.2224,-3.1316 0.2251,-5.5672 0.0007,-0.5816 -0.1697,-1.7105 -0.3476,-2.2062 -0.1803,-0.5026 -1.6084,-1.4765 -2.0901,-1.9974 -1.2061,-1.3042 -1.6031,-1.7404 -4.3065,-0.8798 -0.6075,0.1934 -1.004,0.2174 -1.5904,0.4617 -0.4403,0.1835 -1.1056,0.4058 -1.644,0.4164zm12.9283 -6.3627c0.6906,-0.3481 1.0975,-0.4663 1.9149,-0.9052 0.3649,-0.196 0.6645,-0.2057 1.0421,-0.3763 0.384,-0.1735 0.5399,-0.2979 1.0634,-0.3369 1.0132,1.9102 2.7182,5.5857 3.7949,7.1993 0.3636,0.5448 0.4716,1.4006 0.7219,2.0402 0.2079,0.5309 0.6274,0.6537 -0.458,1.8035 -0.6523,0.691 -1.5978,2.5412 -2.1196,3.371l-2.1689 0.024 0.6063 -1.8482c0.4106,-0.6869 0.5456,-0.8722 0.1485,-1.6675l-0.7269 -1.5813c-0.5663,-0.9579 -1.4169,-2.8203 -1.5645,-3.0557 -0.3801,-0.6066 -0.6929,-1.5839 -1.1056,-2.3497l-1.1485 -2.3172zm5.7584 -2.2131c0.6054,-0.4961 1.5254,-0.849 2.0794,-1.3846 0.6688,-0.6464 1.2819,-1.0328 1.8774,-1.5826 0.8282,-0.7645 1.5685,-1.1275 1.975,-1.4921 1.0247,-0.9193 0.8308,-0.6528 2.6978,-0.4216 0.5866,0.0726 2.6046,0.3257 3.0869,0.3271 0.8602,0.0025 2.6798,0.0832 3.3777,-0.0772 0.9646,-0.2216 1.7186,-0.6487 2.5779,-0.8708 1.0324,-0.2669 1.8443,-0.6119 2.0321,0.8008 0.1896,1.426 -0.291,1.7542 -0.9069,2.5438 -1.7859,2.2896 -5.0773,2.4624 -7.702,2.6729 -0.2514,0.0201 -2.4775,0.6392 -2.7116,0.7626 -1.8482,0.9739 -4.1548,4.8966 -5.0007,5.2777 -0.5363,-1.0778 -3.269,-5.9084 -3.383,-6.556zm20.7306 -45.0322c0.0683,1.0571 0.45,2.1276 0.5808,3.2083 0.2674,2.2106 0.1784,4.5844 -0.6485,6.6486l-1.0321 2.6175c-0.344,0.8972 -0.749,1.6984 -1.2024,2.5146 -0.2383,0.429 -0.3547,0.9246 -0.5612,1.3069 -0.2287,0.4234 -0.4459,0.653 -0.6678,1.1063 -1.0896,2.2265 -2.8706,4.5169 -4.9271,2.4924 -1.1003,-1.026 -1.2866,-1.2699 -2.6738,-2.1202 -0.4772,-0.2925 -1.2181,-0.5558 -1.9215,-0.5634 1.0318,1.6955 1.5623,1.8368 1.3884,3.6802 -0.058,0.6141 -0.5992,1.1915 -0.9444,1.5466 -0.5827,0.5992 -2.6599,1.2553 -3.5222,1.4412 -1.7892,0.3858 -2.6751,0.4209 -4.5057,0.4196 -0.8842,-0.0006 -1.5377,0.0899 -2.3962,0.1041 -10.2393,0.1691 -21.8843,3.286 -26.2105,13.5019 -0.5246,1.5428 -0.3716,2.855 -0.4069,4.557 -0.0264,1.2654 -0.8894,2.7107 -1.6356,3.3452 -0.9777,0.8314 -2.9307,1.0255 -3.5507,-0.1235 -0.7074,-1.3109 0.5148,-2.6776 0.7029,-3.8176 -1.9163,1.7728 -2.9698,2.6437 -4.3428,4.9149 -0.5994,0.9915 -1.7749,3.4348 -1.8984,4.5736 -0.153,1.4109 -0.0148,3.6731 0.147,5.0459 0.3659,3.1034 1.1586,5.8085 2.2394,8.3246 0.5356,1.2469 1.0908,2.2711 1.7715,3.4696 0.3627,0.6384 1.6659,2.8082 2.2074,3.0297 0.2055,-0.213 0.3068,-0.3651 0.4339,-0.6445 1.2065,-2.6518 3.1626,-7.0953 4.4605,-9.3877 0.303,-0.5352 0.5521,-0.7146 0.8911,-1.1464 3.79,-4.8283 6.5275,-3.6473 11.4851,-5.382 2.6426,-0.9247 2.3684,-0.7047 4.3839,0.8454 0.2852,0.2194 0.9613,0.8254 1.0566,1.0645 0.3543,0.8897 -0.1008,6.7333 -0.1809,8.0659 -0.0331,0.549 -0.1721,1.2987 -0.4645,1.6633 -0.5621,0.701 -3.637,1.2195 -4.7183,1.5617 -3.2699,1.035 -2.8794,1.4324 -6.5255,-0.1881 0.4601,-1.1016 1.3,-3.4164 2.0013,-4.2288 0.6112,-0.7079 1.6346,0.0645 2.5858,-0.1815 0.794,-0.2054 1.2315,-1.4377 0.4009,-1.8305 -0.5536,-0.2617 -0.7158,0.1161 -1.3285,0.0768 -0.7853,-0.0504 -2.0357,-0.3014 -2.6147,0.3544 -1.024,1.1598 -1.579,2.5365 -2.1833,3.931 -0.15,0.346 -0.3279,0.6563 -0.489,1.0342 -0.3161,0.7418 -0.7021,1.8151 0.2562,2.2238l2.176 0.9155c0.5406,0.1806 1.9832,0.5375 2.5719,0.5441 1.3555,0.0153 2.5027,-0.5324 3.6604,-0.9659l3.619 -1.0165c0.5253,-0.0407 0.8587,-0.1929 1.3025,-0.4705 0.4505,-0.2817 0.6391,-0.1339 0.9371,-0.4893 0.2815,-0.3357 0.1815,-0.5121 0.2854,-1.0989 0.1124,-0.634 0.1217,-0.9391 0.3004,-1.2265l2.0569 -0.3455c0.4954,0.0014 1.9788,0.0616 2.3659,-0.042 0.9608,-0.257 0.8987,-2.411 1.629,-3.0628l1.2776 0.0604c0.3864,-0.0883 1.1336,-0.0367 1.5633,-0.0373 1.8528,-0.0026 1.3357,-0.776 2.0297,-1.079l1.5605 2.9305c1.2408,0.077 2.3585,-0.1033 3.3372,-0.5275 1.3625,-0.5905 5.7026,-2.4633 6.6704,-0.8241 0.5819,0.9856 0.3302,0.5256 0.7011,1.5336 0.9963,2.7074 -2.49,3.1567 -5.2763,4.6725 -1.4131,0.7688 -1.3114,0.6889 -2.4965,1.8488 -0.7573,0.7413 -1.5478,1.3568 -2.3189,2.0314 -4.4329,3.8774 -9.3811,2.3303 -13.4419,6.172 -1.0059,0.9517 -2.8308,2.4706 -1.5701,3.9722 0.5282,0.6292 1.71,1.298 2.807,1.4387 4.7086,0.604 11.3644,-0.6187 15.3125,-1.9098 2.2068,-0.7217 4.1916,-1.5693 6.1426,-2.5599 0.8614,-0.4374 1.8132,-1.0541 2.8142,-1.5304 3.1058,-1.478 5.4513,-2.6804 8.2337,-4.7236 2.6453,-1.9425 5.0094,-3.5179 6.8188,-6.2264 0.9258,-1.3859 1.7863,-2.6309 2.2944,-4.2845 0.425,-1.383 1.5455,-3.3914 1.5379,-4.8506 -0.4607,0.4818 -0.9383,0.9342 -1.4951,1.2668 -3.536,2.1122 -0.8299,-3.1045 -0.3193,-3.968 0.6614,-1.1186 0.9038,-2.5471 1.4484,-3.8793 0.5334,-1.3048 0.591,-2.8428 1.063,-4.2546 0.1903,-0.5694 0.2758,-4.6091 0.0041,-5.1105l-0.4358 1.5642c-0.6658,2.3211 -2.5489,3.2971 -3.0104,2.2099 -0.0841,-0.198 -0.1705,-0.5757 -0.2515,-0.8057 -0.1,-0.2837 -0.1166,-0.5249 -0.1624,-0.8566 -0.0872,-0.6321 -0.075,-1.1989 -0.0751,-1.8784 -0.0004,-2.6445 0.294,-4.0298 1.8917,-6.0357 1.9335,-2.4274 3.0472,-3.7704 3.0473,-7.0893 0,-0.4097 -0.1215,-1.6078 -0.4713,-1.7897 -0.3197,0.8118 -0.5945,1.6596 -1.093,2.3708 -0.7932,1.1314 -3.4147,2.2903 -4.9125,1.9473 -2.8536,-0.6535 -1.7156,-5.9882 -1.0825,-7.6854 0.2197,-0.5892 0.3071,-0.5741 0.407,-1.3249 0.2124,-1.5971 0.5469,-2.7212 0.5472,-4.5351 0.0008,-5.3845 -6.0511,-16.4447 -9.4417,-18.05z"/>
 </g>
</svg>
