<?xml version="1.0" encoding="UTF-8"?>
<!DOCTYPE svg PUBLIC "-//W3C//DTD SVG 1.1//EN" "http://www.w3.org/Graphics/SVG/1.1/DTD/svg11.dtd">
<!-- Creator: CorelDRAW -->
<svg xmlns="http://www.w3.org/2000/svg" xml:space="preserve" width="100mm" height="100mm" style="shape-rendering:geometricPrecision; text-rendering:geometricPrecision; image-rendering:optimizeQuality; fill-rule:evenodd; clip-rule:evenodd"
viewBox="0 0 100 100"
 xmlns:xlink="http://www.w3.org/1999/xlink">
 <defs>
  <style type="text/css">
   <![CDATA[
    .fil0 {fill:#EC268F}
    .fil3 {fill:#296067}
    .fil2 {fill:#2C2C2C}
    .fil1 {fill:#3D2A20}
    .fil5 {fill:#4D9DA7}
    .fil6 {fill:#AF5836}
    .fil7 {fill:#D1D1D1}
    .fil4 {fill:#E8835C}
   ]]>
  </style>
 </defs>
 <g id="Camada_x0020_1">
  <metadata id="CorelCorpID_0Corel-Layer"/>
  <path class="fil0" d="M66.187 45.334c0.6537,0.1489 1.292,-0.3055 1.9926,-0.573 0.8541,-0.326 1.0685,-0.7385 1.7614,-0.2773l0.0187 6.1482c1.3523,0.0194 2.2771,0.8659 2.2952,1.7487 0.0066,0.3187 -0.2932,2.152 -0.0304,3.5738 0.1658,0.897 0.2679,2.8497 -0.193,3.4998 -0.2889,0.4074 -0.7667,0.4746 -1.2046,0.8092l-1.2217 0.8851c0.5919,-0.0823 0.2364,-0.2424 0.3918,0.18 0,1.3812 -0.1824,5.5534 0.1154,6.4933 0.2455,0.1465 1.5744,2.0521 1.7882,2.445 0.616,1.1326 1.3138,1.5453 0.9942,3.4069 -0.1999,1.1643 -0.4062,2.5355 -1.0802,3.3342l-0.9989 1.144c-0.2889,0.3627 -0.8144,0.7521 -1.2032,1.0751 0.3692,0.9051 1.0949,0.1829 0.8918,2.7691 -0.095,1.2092 -0.3305,1.7331 -0.1191,3.4279 0.1368,1.0971 0.2088,2.3346 0.1213,3.5078 -0.158,2.1192 -2.4762,2.9159 -4.3034,3.1561 -1.045,0.1374 -2.2492,-0.2973 -2.8965,-0.8721 -0.8342,-0.7407 -1.2361,-3.0866 -1.1161,-4.4305l0.3099 -1.6916c-1.7173,-0.59 -3.5683,-1.3069 -5.3854,-1.9314 -0.8876,-0.305 -1.7934,-0.6506 -2.7042,-0.952 -1.6624,-0.5501 -1.0607,-0.6008 -2.6795,0.0508l-10.4625 4.1067c0.1373,0.6353 1.003,0.8865 1.366,2.96 0.3538,2.0211 -0.885,4.7505 -3.2306,5.0734 -4.0541,0.558 -4.9926,0.289 -5.508,-2.7788 -0.2069,-1.2316 -0.553,-2.2737 -0.7174,-3.5687 -0.1322,-1.0411 -0.114,-3.0627 -0.1391,-4.1579 -0.0435,-1.8922 0.1603,-2.0985 0.7011,-3.8122 -0.2711,-0.1184 -0.469,-0.2622 -0.7771,-0.3831 -0.832,-0.3265 -1.3445,-0.4473 -2.0197,-1.3715 -0.3224,-0.4413 -0.5125,-0.9172 -0.8779,-1.3989 -0.2968,-0.3914 -0.6121,-0.9774 -0.71,-1.5387 -0.1742,-0.9979 -0.1503,-3.4738 0.0671,-4.3483 0.3225,-1.2977 1.2645,-1.5845 1.669,-2.9256 0.6486,-0.9631 0.3003,-2.8338 0.2997,-4.016l-0.0122 -3.1589c-0.0002,-0.0906 0.0071,-0.4136 0.0244,-0.4887 0.111,-0.4839 -0.1989,-0.1803 0.1992,-0.3757 -0.0249,-0.0235 -0.0609,-0.051 -0.0793,-0.0653 -0.0181,-0.0142 -0.0566,-0.0466 -0.0789,-0.0636l-0.4551 -0.3273c-0.272,-0.2067 -0.2935,-0.242 -0.5772,-0.4326 -1.1458,-0.7694 -1.8557,-1.0607 -1.2433,-4.2609 0.2624,-1.3711 -0.0417,-3.4823 -0.0204,-3.6759 0.0932,-0.8462 1.1198,-1.7325 2.3075,-1.5382l-0.0635 -5.26c1.3706,-0.0908 0.6265,-0.1464 1.9362,0.3526 0.6304,0.2402 1.2928,0.7431 1.8504,0.4577 0.2488,-0.7068 0.3918,-1.2831 0.6579,-1.9529 0.9138,-2.3001 2.8647,-4.4237 2.9284,-4.9176 -0.8743,0.4499 -1.5449,0.8817 -2.5736,0.9891 -1.3437,0.1403 -2.2895,-0.6299 -2.666,-0.6993 -0.4013,-0.0739 -0.7166,0.2651 -1.2556,0.4143 -0.4513,0.1249 -0.9399,0.1504 -1.4598,0.1153 -0.9481,-0.064 -1.7435,-0.507 -2.3279,-1.0356 -2.3249,-2.1032 -0.4603,-4.3621 -0.6243,-5.0185 -0.276,-1.1045 -0.7036,-1.3555 -0.2054,-2.7082 0.4262,-1.1572 1.1615,-1.432 1.3845,-2.0207 -0.7454,-0.9096 -1.2554,-1.3126 -1.4807,-2.292 -0.0612,-0.2664 -0.1062,-0.671 -0.287,-0.9151 -0.3011,0.424 -0.7788,0.493 -1.186,0.8867 -0.4478,0.4328 -0.6603,0.6151 -1.1836,0.9591 -0.2342,0.1539 -0.3715,0.225 -0.5818,0.4266l-3.6998 3.6109c-0.2265,0.2302 -0.2589,0.2971 -0.4679,0.5404l-0.881 1.0097c-0.0165,0.0203 -0.0407,0.0486 -0.0569,0.0691l-0.877 1.1398c-0.0172,0.0195 -0.0419,0.0474 -0.0588,0.0672 -0.1091,0.1278 -0.131,0.1634 -0.2235,0.2808l-0.1114 0.1407c-0.0159,0.0209 -0.0388,0.0502 -0.0545,0.0714 -0.7541,1.0217 -1.4088,2.1442 -2.086,3.208 -0.1429,0.2245 -0.2963,0.4166 -0.4549,0.6795l-2.0847 4.2176 -1.1516 3.0079 -0.9529 3.2066c-0.5971,2.1645 -1.1706,7.0293 -1.1577,9.3042 0.0085,1.482 0.1059,2.577 0.1227,4.0401 0.0165,1.43 0.781,5.5597 1.2667,7.0524 0.0838,0.2575 0.1216,0.4857 0.2064,0.802 0.0909,0.3395 0.2004,0.5839 0.283,0.8513l0.5168 1.6261c0.1107,0.3666 0.1217,0.41 0.2729,0.7354 0.1234,0.2655 0.1634,0.4167 0.2861,0.7222l0.6481 1.4947c0.1759,0.3278 0.1531,0.4115 0.2912,0.7172 0.6153,1.3621 1.3801,2.7174 2.2095,3.9667l1.3426 2.0607c0.0213,0.0305 0.0849,0.1154 0.1067,0.1454l0.6952 0.9434c0.2011,0.2561 0.2806,0.3172 0.4515,0.5569 0.5717,0.8018 1.2312,1.5227 1.9055,2.254 0.0175,0.019 0.0435,0.0458 0.0611,0.0649l0.1826 0.1955c0.113,0.1283 0.1132,0.1401 0.227,0.2772 0.1717,0.2069 0.2887,0.3288 0.4938,0.5146 0.0886,0.0802 0.2033,0.1746 0.2678,0.2364l1.8766 1.7787c0.1058,0.0966 0.1667,0.1501 0.2639,0.2402 1.2123,1.1243 2.579,2.0485 3.9037,3.0289 0.4603,0.3407 0.8436,0.4898 1.3149,0.8279 0.701,0.5029 1.5013,0.8576 2.2318,1.2974l0.6837 0.3247c0.0256,0.0128 0.058,0.0297 0.0827,0.0433l0.9768 0.5358c1.4718,0.6662 2.9651,1.2775 4.5116,1.7907 2.1311,0.7073 4.4719,1.4064 6.7181,1.6009 1.1415,0.0988 2.3938,0.4252 3.6659,0.4936 3.4812,0.187 8.2259,-0.1283 11.6435,-0.9623 2.889,-0.705 5.7277,-1.7126 8.4208,-2.9234l1.4149 -0.7278c1.5739,-0.7962 3.1039,-1.7447 4.5405,-2.7703l1.2314 -0.9113c0.4154,-0.2805 0.833,-0.6044 1.2047,-0.9381 0.1169,-0.1049 0.1468,-0.1403 0.2621,-0.242l1.3559 -1.1651c0.4366,-0.3452 0.8104,-0.7867 1.1994,-1.1954 0.0179,-0.0188 0.0436,-0.0458 0.0619,-0.0642 1.5093,-1.517 2.8368,-3.0902 4.1394,-4.8099 1.0489,-1.3846 2.0346,-2.9513 2.8265,-4.4841l1.6592 -3.5087c0.0976,-0.2347 0.2079,-0.3964 0.3234,-0.6849 0.3058,-0.7631 0.6744,-1.6171 0.878,-2.3992 0.2848,-1.094 0.7426,-2.1485 0.9228,-3.2367 0.1189,-0.7188 0.2387,-1.0969 0.4138,-1.729 0.3756,-1.3567 0.7399,-5.9705 0.7363,-7.5827 -0.0025,-1.1126 -0.1772,-4.8796 -0.3389,-5.8377 -0.4277,-2.5346 -0.9735,-5.1098 -1.768,-7.5593 -0.375,-1.1559 -0.9144,-2.3263 -1.3587,-3.4311l-0.4836 -1.155c-1.0131,-2.1277 -2.8896,-5.3647 -4.4488,-7.1474 -0.0171,-0.0196 -0.0421,-0.0473 -0.0591,-0.0669l-2.4949 -2.9251c-0.7501,-0.7844 -1.4929,-1.6345 -2.3215,-2.3422l-2.2585 -1.901 -3.7532 -2.6298c-0.2264,0.2761 -0.2444,0.7972 -0.4008,1.1904 -0.1713,0.4305 -0.4064,0.709 -0.5306,1.1591 1.2047,1.9651 1.8314,3.0056 -0.1811,5.42l0.4044 2.6951c-0.0349,1.1858 -1.719,2.7108 -3.5003,2.911 -1.1821,0.1329 -1.6433,-0.3562 -2.472,-0.5545 -1.5091,1.1487 -1.1349,1.0525 -2.9232,1.4619 1.4621,2.0403 3.3588,4.5795 3.7742,7.1127z"/>
  <path class="fil1" d="M40.5219 30.522c1.2085,2.0753 0.1618,2.0143 3.2617,1.9271 0.8491,-0.0238 1.6689,-0.0587 2.5196,-0.0853 0.9526,-0.0298 1.6694,0.1067 2.0732,-0.6583l0.7949 -1.4035c0.5592,-0.0281 1.4995,-0.1245 1.9394,0.136 0.2332,0.1381 0.743,0.9625 0.8626,1.2078 0.8726,1.1761 0.8281,0.8754 2.6488,0.8754 0.987,0 2.6137,0.0979 3.5192,-0.0874 0.171,-0.1967 0.8002,-1.2515 0.9316,-1.6189 1.1064,-1.8368 0.3316,-0.5616 0.9589,-1.9121 0.1727,-0.3716 0.3482,-0.3922 0.6084,-0.7588l0.5363 -0.9584c2.0769,0.6039 2.3977,3.9106 0.1532,4.928 -0.8828,0.4001 -1.5825,0.1321 -2.5613,0.2881 -0.3246,0.5354 -0.4964,0.9944 -0.8807,1.5646 -0.4187,0.6212 -0.6625,0.9493 -1.1649,1.4804 -0.9515,1.006 -1.5784,1.4322 -3.0338,2.2095 -0.4067,1.2138 0.3486,1.9282 -0.8479,3.365 -1.7227,2.0685 -4.5977,1.6991 -5.8421,0.0744 -0.8296,-1.0831 -0.7985,-1.8038 -0.7615,-3.3567 -0.3147,-0.2606 -1.2065,-0.6718 -1.6118,-0.9487 -0.6103,-0.417 -0.9479,-0.7424 -1.4166,-1.2327 -0.9352,-0.9783 -1.5319,-1.8218 -2.1587,-3.1771 -0.8701,-0.1208 -1.4337,0.1011 -2.2457,-0.2286 -0.5796,-0.2353 -1.0504,-0.7235 -1.3149,-1.2214l0.8724 -3.4706c0.4891,0.6938 0.2793,0.8714 1.009,1.4729 0.7245,0.5973 0.8056,0.6273 1.1507,1.5893zm16.243 0.5943c-0.7038,0.0007 -0.5397,-0.0586 -0.6904,-0.3749 -0.0826,-0.1735 -0.1505,-0.9192 -1.0766,-0.964 -0.4318,-0.0208 -0.7583,0.1447 -0.9475,0.3581 -0.211,0.2381 -0.2203,0.4607 -0.3488,0.7802l-0.0878 0.1915c-0.7246,-0.1502 -1.1945,-1.4324 -1.5319,-2.0572 1.7401,-0.0578 4.8785,-0.1143 6.4606,-0.0211 -0.2583,0.6395 -0.9757,2.0874 -1.7776,2.0874zm-15.3768 -2.0888c3.9784,-0.367 3.7632,0.8896 5.8703,0.2023 0.41,-0.1338 0.2427,-0.1419 0.6886,0.0064l-0.7385 1.7081 -1.2835 -0.0012c-0.2821,-0.6344 -0.357,-1.1751 -1.2601,-1.1702l-1.2606 1.307 -1.0544 0.0031 -0.9618 -2.0555zm-14.1179 -3.804c0.1808,0.2441 0.2258,0.6487 0.287,0.9151 0.2253,0.9794 0.7353,1.3824 1.4807,2.292 -0.223,0.5887 -0.9583,0.8635 -1.3845,2.0207 -0.4982,1.3527 -0.0706,1.6037 0.2054,2.7082 0.164,0.6564 -1.7006,2.9153 0.6243,5.0185 0.5844,0.5286 1.3798,0.9716 2.3279,1.0356 0.5199,0.0351 1.0085,0.0096 1.4598,-0.1153 0.539,-0.1492 0.8543,-0.4882 1.2556,-0.4143 0.3765,0.0694 1.3223,0.8396 2.666,0.6993 1.0287,-0.1074 1.6993,-0.5392 2.5736,-0.9891 -0.0637,0.4939 -2.0146,2.6175 -2.9284,4.9176 -0.2661,0.6698 -0.4091,1.2461 -0.6579,1.9529 0.2845,0.5104 2.9782,1.4289 3.6803,1.7004 1.9035,0.736 10.5009,4.393 11.4872,4.6366l0.4482 0.0321c0.7731,-0.0099 3.0568,-1.1316 3.9752,-1.4942l7.6954 -3.1501c0.6308,-0.2497 3.5244,-1.2557 3.721,-1.6555 -0.4154,-2.5332 -2.3121,-5.0724 -3.7742,-7.1127 1.7883,-0.4094 1.4141,-0.3132 2.9232,-1.4619 0.8287,0.1983 1.2899,0.6874 2.472,0.5545 1.7813,-0.2002 3.4654,-1.7252 3.5003,-2.911l-0.4044 -2.6951c2.0125,-2.4144 1.3858,-3.4549 0.1811,-5.42 0.1242,-0.4501 0.3593,-0.7286 0.5306,-1.1591 0.1564,-0.3932 0.1744,-0.9143 0.4008,-1.1904 0,-1.3188 -0.4859,-1.8235 -1.1344,-2.8184 0.25,-0.3411 1.6711,-1.5078 1.3943,-2.8974l-1.2682 -3.0267c0.8805,-0.5897 1.5736,-2.5377 1.2474,-3.3899l-2.0037 -2.7864c0,-1.5269 -0.4264,-2.1654 -1.2247,-2.9348 -0.6022,-0.5804 -1.9286,-1.2338 -3.1341,-1.0545 -0.6548,0.0974 -1.1467,0.3283 -1.5795,0.2292 -0.6238,-0.1429 -1.0714,-0.3268 -1.8053,-0.2107 -1.4796,0.234 -1.6496,0.5426 -2.8443,1.4499 -1.2023,-0.2801 -1.5203,-0.8617 -3.3533,-0.4544 -1.3934,0.3096 -1.5793,0.8047 -2.4447,1.8409 -2.5458,0 -1.7006,-0.2415 -3.9075,0.8823 -0.5875,-0.8774 -1.4471,-1.5545 -2.5494,-1.7361 -1.6094,-0.2652 -2.3281,0.2002 -3.5008,0.7278 -1.0628,-2.0087 -3.6985,-2.6044 -5.1543,-1.8771l-1.5261 0.9948c-0.7328,-0.1708 -2.8052,-1.624 -5.1899,0.3577 -0.7793,0.6476 -0.6623,0.0171 -1.9764,0.1588 -2.065,0.2226 -3.6097,1.9695 -3.6453,3.1674l0.2238 2.1141c-0.3657,0.5461 -0.6621,0.7298 -0.9436,1.4514 -0.2617,0.671 -0.3556,1.2837 -0.2108,1.9659 0.3495,1.6464 0.9381,1.8222 2.1627,2.759 -0.489,2.0989 -0.6234,1.9279 0.5042,4.1595 -0.4535,0.6773 -0.7856,1.2674 -0.8823,2.2129z"/>
  <path class="fil2" d="M51.0261 76.7101c-0.3531,0.2093 -0.6329,0.076 -0.9439,-0.0047 -1.3494,-0.34 -15.4569,-6.7885 -17.9029,-7.9411 -0.983,-0.4632 -0.3963,-0.4697 -1.0871,-0.6468 -0.4045,1.3411 -1.3465,1.6279 -1.669,2.9256 -0.2174,0.8745 -0.2413,3.3504 -0.0671,4.3483 0.0979,0.5613 0.4132,1.1473 0.71,1.5387 0.3654,0.4817 0.5555,0.9576 0.8779,1.3989 0.6752,0.9242 1.1877,1.045 2.0197,1.3715 0.3081,0.1209 0.506,0.2647 0.7771,0.3831 -0.5408,1.7137 -0.7446,1.92 -0.7011,3.8122 0.0251,1.0952 0.0069,3.1168 0.1391,4.1579 0.1644,1.295 0.5105,2.3371 0.7174,3.5687 0.5154,3.0678 1.4539,3.3368 5.508,2.7788 2.3456,-0.3229 3.5844,-3.0523 3.2306,-5.0734 -0.363,-2.0735 -1.2287,-2.3247 -1.366,-2.96l10.4625 -4.1067c1.6188,-0.6516 1.0171,-0.6009 2.6795,-0.0508 0.9108,0.3014 1.8166,0.647 2.7042,0.952 1.8171,0.6245 3.6681,1.3414 5.3854,1.9314l-0.3099 1.6916c-0.12,1.3439 0.2819,3.6898 1.1161,4.4305 0.6473,0.5748 1.8515,1.0095 2.8965,0.8721 1.8272,-0.2402 4.1454,-1.0369 4.3034,-3.1561 0.0875,-1.1732 0.0155,-2.4107 -0.1213,-3.5078 -0.2114,-1.6948 0.0241,-2.2187 0.1191,-3.4279 0.2031,-2.5862 -0.5226,-1.864 -0.8918,-2.7691 0.3888,-0.323 0.9143,-0.7124 1.2032,-1.0751l0.9989 -1.144c0.674,-0.7987 0.8803,-2.1699 1.0802,-3.3342 0.3196,-1.8616 -0.3782,-2.2743 -0.9942,-3.4069 -0.2138,-0.3929 -1.5427,-2.2985 -1.7882,-2.445 -0.3386,0.6936 -0.0447,0.5516 -0.7867,0.8928l-8.4305 3.7982c-1.9875,0.8853 -8.1739,3.9545 -9.8691,4.1973z"/>
  <path class="fil3" d="M66.187 45.334c-0.1966,0.3998 -3.0902,1.4058 -3.721,1.6555l-7.6954 3.1501c-0.9184,0.3626 -3.2021,1.4843 -3.9752,1.4942 0.4155,0.3156 0.3899,0.5392 0.3824,1.2467 -0.0455,4.3423 0.1923,22.8732 -0.1517,23.8296 1.6952,-0.2428 7.8816,-3.312 9.8691,-4.1973l8.4305 -3.7982c0.742,-0.3412 0.4481,-0.1992 0.7867,-0.8928 -0.2978,-0.9399 -0.1154,-5.1121 -0.1154,-6.4933 -0.1554,-0.4224 0.2001,-0.2623 -0.3918,-0.18 -1.1764,-0.1173 -1.6228,0.2692 -2.2199,-0.7375 -0.4118,-0.6944 -0.5512,-1.5682 -0.5035,-2.4849 0.0651,-1.253 0.6501,-1.8223 1.7175,-2.789 0.1336,-0.121 0.619,-0.5575 0.6893,-0.6619l-2.3722 0.3601c-0.7513,-0.2666 -0.9404,-1.2931 -0.4781,-1.9807 0.2024,-0.301 3.0427,-2.0617 3.5214,-2.2227l-0.0187 -6.1482c-0.6929,-0.4612 -0.9073,-0.0487 -1.7614,0.2773 -0.7006,0.2675 -1.3389,0.7219 -1.9926,0.573z"/>
  <path class="fil3" d="M31.4566 49.7144c0.2097,0.0043 3.2361,1.7293 3.545,2.2463 0.8577,1.4355 -0.7806,2.7541 -2.874,1.5061l1.5022 1.5025c1.2573,1.2686 1.0566,3.4595 0.2462,4.6468 -0.5104,0.7477 -1.1984,0.6052 -2.2727,0.4621 -0.3981,0.1954 -0.0882,-0.1082 -0.1992,0.3757 -0.0173,0.0751 -0.0246,0.3981 -0.0244,0.4887l0.0122 3.1589c0.0006,1.1822 0.3489,3.0529 -0.2997,4.016 0.6908,0.1771 0.1041,0.1836 1.0871,0.6468 2.446,1.1526 16.5535,7.6011 17.9029,7.9411 -0.2093,-1.8373 -0.0256,-19.4973 -0.0634,-23.6971 -0.0067,-0.7383 -0.067,-1.0109 0.3284,-1.4066 -0.9863,-0.2436 -9.5837,-3.9006 -11.4872,-4.6366 -0.7021,-0.2715 -3.3958,-1.19 -3.6803,-1.7004 -0.5576,0.2854 -1.22,-0.2175 -1.8504,-0.4577 -1.3097,-0.499 -0.5656,-0.4434 -1.9362,-0.3526l0.0635 5.26z"/>
  <path class="fil4" d="M41.0504 32.3804c0.6268,1.3553 1.2235,2.1988 2.1587,3.1771 0.4687,0.4903 0.8063,0.8157 1.4166,1.2327 0.4053,0.2769 1.2971,0.6881 1.6118,0.9487 3.3467,1.0116 4.2014,1.0836 7.4515,-0.0827 1.4554,-0.7773 2.0823,-1.2035 3.0338,-2.2095 0.5024,-0.5311 0.7462,-0.8592 1.1649,-1.4804 0.3843,-0.5702 0.5561,-1.0292 0.8807,-1.5646 0.1103,-0.3212 0.2143,-0.4968 0.3533,-0.8853 0.0299,-0.0836 0.0967,-0.269 0.0936,-0.3766 -0.0111,-0.3847 0.2095,-0.1465 -0.1424,-0.3249 -0.1314,0.3674 -0.7606,1.4222 -0.9316,1.6189 -0.9055,0.1853 -2.5322,0.0874 -3.5192,0.0874 -1.8207,0 -1.7762,0.3007 -2.6488,-0.8754 -0.588,-0.1827 -1.0481,0.1294 -1.7635,0.168 -0.6527,0.0352 -1.2423,-0.1229 -1.8334,-0.1083 -0.4038,0.765 -1.1206,0.6285 -2.0732,0.6583 -0.8507,0.0266 -1.6705,0.0615 -2.5196,0.0853 -3.0999,0.0872 -2.0532,0.1482 -3.2617,-1.9271 -0.1369,0.2134 0.0392,0.569 0.15,0.8864 0.0526,0.1504 0.1133,0.3137 0.171,0.4593l0.2075 0.5127z"/>
  <path class="fil4" d="M31.6033 60.0782c1.0743,0.1431 1.7623,0.2856 2.2727,-0.4621 0.8104,-1.1873 1.0111,-3.3782 -0.2462,-4.6468l-1.5022 -1.5025c2.0934,1.248 3.7317,-0.0706 2.874,-1.5061 -0.3089,-0.517 -3.3353,-2.242 -3.545,-2.2463 -1.1877,-0.1943 -2.2143,0.692 -2.3075,1.5382 -0.0213,0.1936 0.2828,2.3048 0.0204,3.6759 -0.6124,3.2002 0.0975,3.4915 1.2433,4.2609 0.2837,0.1906 0.3052,0.2259 0.5772,0.4326l0.4551 0.3273c0.0223,0.017 0.0608,0.0494 0.0789,0.0636 0.0184,0.0143 0.0544,0.0418 0.0793,0.0653z"/>
  <path class="fil4" d="M69.6052 61.1485l1.2217 -0.8851c0.4379,-0.3346 0.9157,-0.4018 1.2046,-0.8092 0.4609,-0.6501 0.3588,-2.6028 0.193,-3.4998 -0.2628,-1.4218 0.037,-3.2551 0.0304,-3.5738 -0.0181,-0.8828 -0.9429,-1.7293 -2.2952,-1.7487 -0.4787,0.161 -3.319,1.9217 -3.5214,2.2227 -0.4623,0.6876 -0.2732,1.7141 0.4781,1.9807l2.3722 -0.3601c-0.0703,0.1044 -0.5557,0.5409 -0.6893,0.6619 -1.0674,0.9667 -1.6524,1.536 -1.7175,2.789 -0.0477,0.9167 0.0917,1.7905 0.5035,2.4849 0.5971,1.0067 1.0435,0.6202 2.2199,0.7375z"/>
  <path class="fil5" d="M50.0822 76.7054c0.311,0.0807 0.5908,0.214 0.9439,0.0047 0.344,-0.9564 0.1062,-19.4873 0.1517,-23.8296 0.0075,-0.7075 0.0331,-0.9311 -0.3824,-1.2467l-0.4482 -0.0321c-0.3954,0.3957 -0.3351,0.6683 -0.3284,1.4066 0.0378,4.1998 -0.1459,21.8598 0.0634,23.6971z"/>
  <path class="fil6" d="M46.2375 37.7389c-0.037,1.5529 -0.0681,2.2736 0.7615,3.3567 1.2444,1.6247 4.1194,1.9941 5.8421,-0.0744 1.1965,-1.4368 0.4412,-2.1512 0.8479,-3.365 -3.2501,1.1663 -4.1048,1.0943 -7.4515,0.0827z"/>
  <path class="fil6" d="M59.0729 30.8149c0.3519,0.1784 0.1313,-0.0598 0.1424,0.3249 0.0031,0.1076 -0.0637,0.293 -0.0936,0.3766 -0.139,0.3885 -0.243,0.5641 -0.3533,0.8853 0.9788,-0.156 1.6785,0.112 2.5613,-0.2881 2.2445,-1.0174 1.9237,-4.3241 -0.1532,-4.928l-0.5363 0.9584c-0.2602,0.3666 -0.4357,0.3872 -0.6084,0.7588 -0.6273,1.3505 0.1475,0.0753 -0.9589,1.9121z"/>
  <path class="fil6" d="M41.0504 32.3804l-0.2075 -0.5127c-0.0577,-0.1456 -0.1184,-0.3089 -0.171,-0.4593 -0.1108,-0.3174 -0.2869,-0.673 -0.15,-0.8864 -0.3451,-0.962 -0.4262,-0.992 -1.1507,-1.5893 -0.7297,-0.6015 -0.5199,-0.7791 -1.009,-1.4729l-0.8724 3.4706c0.2645,0.4979 0.7353,0.9861 1.3149,1.2214 0.812,0.3297 1.3756,0.1078 2.2457,0.2286z"/>
  <path class="fil7" d="M47.2584 29.2298c-2.1071,0.6873 -1.8919,-0.5693 -5.8703,-0.2023l0.9618 2.0555 1.0544 -0.0031 1.2606 -1.307c0.9031,-0.0049 0.978,0.5358 1.2601,1.1702l1.2835 0.0012 0.7385 -1.7081c-0.4459,-0.1483 -0.2786,-0.1402 -0.6886,-0.0064z"/>
  <path class="fil7" d="M56.7649 31.1163c0.8019,0 1.5193,-1.4479 1.7776,-2.0874 -1.5821,-0.0932 -4.7205,-0.0367 -6.4606,0.0211 0.3374,0.6248 0.8073,1.907 1.5319,2.0572l0.0878 -0.1915c0.1285,-0.3195 0.1378,-0.5421 0.3488,-0.7802 0.1892,-0.2134 0.5157,-0.3789 0.9475,-0.3581 0.9261,0.0448 0.994,0.7905 1.0766,0.964 0.1507,0.3163 -0.0134,0.3756 0.6904,0.3749z"/>
  <path class="fil6" d="M48.3764 31.7055c0.5911,-0.0146 1.1807,0.1435 1.8334,0.1083 0.7154,-0.0386 1.1755,-0.3507 1.7635,-0.168 -0.1196,-0.2453 -0.6294,-1.0697 -0.8626,-1.2078 -0.4399,-0.2605 -1.3802,-0.1641 -1.9394,-0.136l-0.7949 1.4035z"/>
 </g>
</svg>
